<svg viewBox="0 0 24 24" fill="currentColor" xmlns="http://www.w3.org/2000/svg">
<path d="M12 .5C5.65.5.5 5.65.5 12c0 5.1 3.29 9.42 7.86 10.96.58.11.79-.25.79-.56 0-.28-.01-1.02-.02-2-3.2.7-3.88-1.54-3.88-1.54-.53-1.34-1.3-1.7-1.3-1.7-1.06-.72.08-.71.08-.71 1.17.08 1.78 1.2 1.78 1.2 1.04 1.78 2.72 1.27 3.39.97.1-.76.41-1.27.74-1.56-2.55-.29-5.23-1.28-5.23-5.7 0-1.26.45-2.29 1.2-3.1-.12-.29-.52-1.47.11-3.06 0 0 .97-.31 3.18 1.19A11.1 11.1 0 0 1 12 6.8c.98.01 1.97.13 2.9.37 2.2-1.5 3.17-1.19 3.17-1.19.63 1.59.23 2.77.11 3.06.75.81 1.2 1.84 1.2 3.1 0 4.43-2.69 5.4-5.26 5.68.42.37.8 1.1.8 2.22 0 1.6-.03 2.89-.03 3.28 0 .31.21.68.8.56A10.99 10.99 0 0 0 23.5 12c0-6.35-5.15-11.5-11.5-11.5z"/>
</svg>
